<svg width="38" height="38" viewBox="0 0 38 38" fill="none" xmlns="http://www.w3.org/2000/svg">
<path d="M26.125 17.4166C26.125 22.9583 19 27.7083 19 27.7083C19 27.7083 11.875 22.9583 11.875 17.4166C11.875 15.527 12.6257 13.7147 13.9619 12.3785C15.2981 11.0423 17.1103 10.2916 19 10.2916C20.8897 10.2916 22.7019 11.0423 24.0381 12.3785C25.3743 13.7147 26.125 15.527 26.125 17.4166Z" stroke="#777882" stroke-width="2" stroke-linecap="round" stroke-linejoin="round"/>
<path d="M19 19.7916C20.3117 19.7916 21.375 18.7283 21.375 17.4166C21.375 16.1049 20.3117 15.0416 19 15.0416C17.6883 15.0416 16.625 16.1049 16.625 17.4166C16.625 18.7283 17.6883 19.7916 19 19.7916Z" stroke="#777882" stroke-width="2" stroke-linecap="round" stroke-linejoin="round"/>
</svg>
