<svg width="87" height="18" viewBox="0 0 87 18" fill="none" xmlns="http://www.w3.org/2000/svg">
<path d="M8.27999 10.022C13.788 9.73398 15.426 8.18598 15.426 5.08998C15.426 1.99398 13.788 0.625982 8.27999 0.913981C2.77199 1.20198 1.13399 2.74998 1.13399 5.84598C1.13399 8.94198 2.77199 10.31 8.27999 10.022ZM8.27999 3.32598C11.574 3.14598 12.636 3.57798 12.636 5.23398C12.636 6.88998 11.574 7.42998 8.27999 7.60998C4.98599 7.77198 3.92399 7.35798 3.92399 5.70198C3.92399 4.04598 4.98599 3.48798 8.27999 3.32598ZM16.02 13.532C15.228 13.55 12.618 13.676 9.68399 13.838C9.68399 12.758 9.68399 11.534 9.66599 10.85C8.99999 10.796 7.45199 10.85 6.91199 10.994C6.89399 11.588 6.87599 12.848 6.87599 13.982C4.39199 14.108 1.99799 14.252 0.539992 14.342C0.467992 15.062 0.467992 16.052 0.539992 16.682C2.66399 16.646 14.472 16.07 16.02 15.872C16.092 15.116 16.092 14.198 16.02 13.532Z" fill="#9706ED"/>
<path d="M18.2686 5.68398C19.9066 5.66598 29.9686 5.14398 31.4086 4.99998C31.4806 4.31598 31.4806 3.37998 31.4086 2.69598C30.0586 2.71398 22.8586 3.07398 21.0226 3.23598C21.0586 2.60598 21.0766 1.39998 21.0226 0.859982C20.3746 0.841982 18.8266 0.913981 18.2686 1.00398C18.1966 1.86798 18.1786 4.51398 18.2686 5.68398ZM17.0986 8.79798C19.2226 8.76198 31.0306 8.18598 32.5786 7.98798C32.6506 7.28598 32.6506 6.38598 32.5786 5.75598C30.8866 5.80998 20.8426 6.31398 17.0986 6.56598C17.0266 7.24998 17.0266 8.20398 17.0986 8.79798ZM18.0886 17.132C20.3926 17.114 30.7786 16.556 31.9486 16.394C31.9846 15.818 32.0206 15.008 31.9486 14.414L20.8066 15.008V14.234L31.5346 13.658C31.6246 12.884 31.6246 9.67998 31.5346 8.97798C29.3206 9.04998 23.3626 9.35598 18.1246 9.67998C18.0526 10.112 18.0526 11.102 18.1246 11.678L28.8166 11.12V11.894L18.0886 12.47C17.9806 14.126 18.0166 16.142 18.0886 17.132Z" fill="#9706ED"/>
<path d="M45.7532 16.484C46.3832 16.502 47.9132 16.448 48.4712 16.34C48.5252 14.162 48.5252 2.55198 48.4712 0.139981C47.8412 0.0679807 46.2392 0.157981 45.7532 0.283982C45.6812 2.35398 45.6632 14.378 45.7532 16.484ZM39.2372 10.742C42.7652 10.562 44.2952 8.68998 44.2952 5.44998C44.2952 2.22798 42.7652 0.517982 39.2372 0.697981C35.7092 0.877981 34.1792 2.76798 34.1792 5.98998C34.1792 9.22998 35.7092 10.922 39.2372 10.742ZM39.2372 8.40198C37.5632 8.49198 36.9332 7.59198 36.9332 5.84598C36.9332 4.09998 37.5632 3.14598 39.2372 3.05598C40.8752 2.96598 41.5412 3.84798 41.5412 5.59398C41.5412 7.33998 40.8752 8.31198 39.2372 8.40198ZM33.6752 15.818C36.4292 15.746 43.8812 15.368 44.8532 15.242C44.9252 14.558 44.9252 13.658 44.8532 12.902C43.3052 12.902 35.1692 13.334 33.6752 13.478C33.5852 14.162 33.5852 15.134 33.6752 15.818Z" fill="#9706ED"/>
<path d="M68.3411 5.86398V3.79398C69.0611 3.75798 69.6011 3.72198 69.8891 3.66798C69.9431 2.98398 69.9431 1.99398 69.8891 1.30998C69.5111 1.32798 68.9711 1.32798 68.3231 1.36398C68.3231 0.877982 68.3051 0.481981 68.3051 0.175982C67.6751 0.121982 66.1091 0.211982 65.6231 0.319981C65.5691 1.68798 65.5691 8.70798 65.6231 10.256C66.2531 10.274 67.7471 10.202 68.3051 10.112C68.3231 9.69798 68.3231 9.06798 68.3231 8.29398C69.0611 8.25798 69.6011 8.22198 69.8891 8.16798C69.9431 7.48398 69.9431 6.49398 69.8891 5.80998C69.5111 5.82798 68.9891 5.82798 68.3411 5.86398ZM64.4171 1.16598C63.6971 1.18398 62.2931 1.25598 60.7451 1.32798C60.7451 0.949981 60.7451 0.607982 60.7271 0.301982C60.0071 0.229981 58.3871 0.31998 57.9011 0.445981C57.8831 0.75198 57.8651 1.11198 57.8651 1.47198C55.9211 1.57998 54.2651 1.68798 53.9051 1.72398C53.8331 2.38998 53.8331 3.30798 53.9051 3.99198C54.9671 3.97398 62.8511 3.55998 64.4171 3.43398C64.4711 2.82198 64.4531 1.79598 64.4171 1.16598ZM59.3051 10.166C62.8151 9.98598 64.3271 9.15798 64.3271 6.88998C64.3271 4.71198 62.9771 3.95598 59.3051 4.15398C55.7951 4.33398 54.2831 5.16198 54.2831 7.42998C54.2831 9.60798 55.6331 10.364 59.3051 10.166ZM59.3051 6.27798C61.2131 6.16998 61.8071 6.45798 61.8071 7.03398C61.8071 7.62798 61.2851 7.95198 59.3051 8.05998C57.3971 8.16798 56.8031 7.87998 56.8031 7.28598C56.8031 6.70998 57.3251 6.38598 59.3051 6.27798ZM61.6271 10.742C56.2991 11.03 54.6431 11.948 54.6431 14.27C54.6431 16.376 56.0291 17.366 61.6271 17.06C66.9551 16.79 68.6111 15.872 68.6111 13.532C68.6111 11.444 67.2251 10.454 61.6271 10.742ZM61.6271 14.828C57.8291 15.026 57.3791 14.738 57.3791 14.126C57.3791 13.496 57.8291 13.172 61.6271 12.974C65.4251 12.776 65.8751 13.082 65.8751 13.676C65.8751 14.324 65.4251 14.63 61.6271 14.828Z" fill="#9706ED"/>
<path d="M72.4797 9.48198C73.5237 8.85198 76.1157 7.19598 78.3297 5.68398C80.5797 6.92598 83.2257 8.23998 84.2517 8.74398C84.5757 8.34798 85.4037 6.97998 85.5837 6.36798C84.1617 5.61198 81.7857 4.38798 79.7517 3.34398C79.7697 2.40798 79.7517 1.21998 79.7157 0.58998C79.0857 0.55398 77.3577 0.661981 76.8717 0.733981C76.8357 1.36398 76.8177 2.55198 76.8357 3.48798C74.8377 4.81998 72.4977 6.34998 71.0757 7.30398C71.2557 7.87998 72.1197 9.13998 72.4797 9.48198ZM86.0337 9.75198C84.3417 9.80598 74.2977 10.31 70.5537 10.562C70.4817 11.282 70.4817 12.272 70.5537 12.902C71.4537 12.884 74.0637 12.776 76.9077 12.632C76.8897 14.144 76.8897 16.232 76.9257 16.88C77.6457 16.88 79.0857 16.808 79.6797 16.736C79.7157 15.998 79.6977 13.946 79.6977 12.488C82.6677 12.344 85.3497 12.182 86.0337 12.092C86.1057 11.336 86.1057 10.418 86.0337 9.75198Z" fill="#9706ED"/>
</svg>
